<svg xmlns="http://www.w3.org/2000/svg" width="109" height="16" fill="none"><path stroke="#CACACA" stroke-dasharray="1.67 4.18" stroke-linecap="square" stroke-width=".837" d="m5.349 7.98 97.008.138"/><path fill="#1262AE" d="M51.195 15.552h1.652l4.132-6.36h4.546c.686 0 1.24-.532 1.24-1.192s-.554-1.192-1.24-1.192h-4.546L52.847.448h-1.652l2.066 6.36h-4.546l-1.24-1.59h-1.239L47.063 8l-.827 2.782h1.24l1.24-1.59h4.545z"/><circle cx="5.445" cy="7.948" r="3.663" fill="#fff" stroke="#1262AE" stroke-width="1.674"/><path fill="#fff" stroke="#1262AE" stroke-width="1.674" d="M103.706 5.285c1.97 0 3.512 1.528 3.512 3.346s-1.542 3.348-3.512 3.348c-1.971 0-3.513-1.53-3.513-3.348s1.542-3.346 3.513-3.346Z"/></svg>